# xmcd
#
# Track frame offsets: 
#        150
#        11015
#        25935
#        42153
#        67756
#        84497
#        102663
#        120432
#        137902
#        152929
#
# Disc length: 2254 seconds
#
# Revision: 0
# Processed by: cddbd v1.5.2PL0 Copyright (c) Steve Scherf et al.
# Submitted via: ExactAudioCopy v0.95b4
#
DISCID=7c08cc0a
DTITLE=Jon Short - Live From "The Shack" At Vincent's
DYEAR=2009
DGENRE=Blues
TTITLE0=Caroline
TTITLE1=One Dime Blues
TTITLE2=Shorty's Future Blues
TTITLE3=Up Jumped the Devil
TTITLE4=Turn Your Money Green
TTITLE5=3 Hours To Sleep (Part 2)
TTITLE6=Screamin' and Hollerin'
TTITLE7=Meet Me In the City
TTITLE8=Hamhound Crave
TTITLE9=You Got To Change Your Mind
EXTD=
EXTT0=
EXTT1=
EXTT2=
EXTT3=
EXTT4=
EXTT5=
EXTT6=
EXTT7=
EXTT8=
EXTT9=
PLAYORDER=
